<?xml version="1.0" encoding="UTF-8" standalone="no"?>
<!DOCTYPE svg PUBLIC "-//W3C//DTD SVG 1.1//EN"
 "http://www.w3.org/Graphics/SVG/1.1/DTD/svg11.dtd">
<!-- Generated by graphviz version 2.44.1 (20200629.0846)
 -->
<!-- Title: dependencies Pages: 1 -->
<svg width="364pt" height="120pt"
 viewBox="0.00 0.00 363.50 120.00" xmlns="http://www.w3.org/2000/svg" xmlns:xlink="http://www.w3.org/1999/xlink">
<g id="graph0" class="graph" transform="scale(1 1) rotate(0) translate(4 116)">
<title>dependencies</title>
<polygon fill="white" stroke="transparent" points="-4,4 -4,-116 359.5,-116 359.5,4 -4,4"/>
<!-- top -->
<g id="node1" class="node">
<title>top</title>
<polygon fill="none" stroke="black" points="176.5,-75.5 176.5,-111.5 230.5,-111.5 230.5,-75.5 176.5,-75.5"/>
<text text-anchor="middle" x="203.5" y="-89.8" font-family="monospace" font-size="14.00">top</text>
</g>
<!-- &lt;interface&gt;
axi_if -->
<g id="node2" class="node">
<title>&lt;interface&gt;
axi_if</title>
<polygon fill="none" stroke="black" points="0,-0.5 0,-38.5 107,-38.5 107,-0.5 0,-0.5"/>
<text text-anchor="middle" x="53.5" y="-23.3" font-family="monospace" font-size="14.00">&lt;interface&gt;</text>
<text text-anchor="middle" x="53.5" y="-8.3" font-family="monospace" font-size="14.00">axi_if</text>
</g>
<!-- top&#45;&gt;&lt;interface&gt;
axi_if -->
<g id="edge1" class="edge">
<title>top&#45;&gt;&lt;interface&gt;
axi_if</title>
<path fill="none" stroke="black" d="M176.34,-79.46C155.23,-69.33 125.44,-55.03 100.48,-43.05"/>
<polygon fill="black" stroke="black" points="101.71,-39.76 91.18,-38.59 98.68,-46.07 101.71,-39.76"/>
</g>
<!-- decoder -->
<g id="node3" class="node">
<title>decoder</title>
<polygon fill="none" stroke="black" points="125.5,-1.5 125.5,-37.5 199.5,-37.5 199.5,-1.5 125.5,-1.5"/>
<text text-anchor="middle" x="162.5" y="-15.8" font-family="monospace" font-size="14.00">decoder</text>
</g>
<!-- top&#45;&gt;decoder -->
<g id="edge2" class="edge">
<title>top&#45;&gt;decoder</title>
<path fill="none" stroke="black" d="M193.78,-75.44C188.9,-66.87 182.88,-56.29 177.43,-46.72"/>
<polygon fill="black" stroke="black" points="180.42,-44.9 172.43,-37.94 174.34,-48.36 180.42,-44.9"/>
</g>
<!-- fifo -->
<g id="node4" class="node">
<title>fifo</title>
<polygon fill="none" stroke="black" points="217.5,-1.5 217.5,-37.5 271.5,-37.5 271.5,-1.5 217.5,-1.5"/>
<text text-anchor="middle" x="244.5" y="-15.8" font-family="monospace" font-size="14.00">fifo</text>
</g>
<!-- top&#45;&gt;fifo -->
<g id="edge3" class="edge">
<title>top&#45;&gt;fifo</title>
<path fill="none" stroke="black" d="M213.22,-75.44C218.1,-66.87 224.12,-56.29 229.57,-46.72"/>
<polygon fill="black" stroke="black" points="232.66,-48.36 234.57,-37.94 226.58,-44.9 232.66,-48.36"/>
</g>
<!-- pkg::* -->
<g id="node5" class="node">
<title>pkg::*</title>
<polygon fill="none" stroke="black" points="289.5,-1.5 289.5,-37.5 355.5,-37.5 355.5,-1.5 289.5,-1.5"/>
<text text-anchor="middle" x="322.5" y="-15.8" font-family="monospace" font-size="14.00">pkg::*</text>
</g>
<!-- top&#45;&gt;pkg::* -->
<g id="edge4" class="edge">
<title>top&#45;&gt;pkg::*</title>
<path fill="none" stroke="black" d="M230.5,-76.16C246.74,-66.34 267.63,-53.7 285.4,-42.95"/>
<polygon fill="black" stroke="black" points="287.62,-45.7 294.36,-37.52 283.99,-39.71 287.62,-45.7"/>
</g>
</g>
</svg>
